<svg width="192" height="195" viewBox="0 0 192 195" fill="none" xmlns="http://www.w3.org/2000/svg">
<path d="M183.917 18.4912V172.386L112.429 105.877L183.917 18.4912Z" fill="#FF81AF" stroke="#0D052C" stroke-width="0.96" stroke-linecap="round" stroke-linejoin="round"/>
<path d="M112.429 105.877L40.3008 194.056V38.7727L112.429 105.877Z" fill="#FFFEAA" stroke="#0D052C" stroke-width="0.96" stroke-linecap="round" stroke-linejoin="round"/>
<path d="M183.917 18.4912L112.429 105.877L40.3008 38.7728L152.973 22.856L183.917 18.4912Z" fill="#62A3FF" stroke="#0D052C" stroke-width="0.96" stroke-linecap="round" stroke-linejoin="round"/>
<path d="M183.917 172.386L40.3008 194.056L112.429 105.877L183.917 172.386Z" fill="#9AF3FF" stroke="#0D052C" stroke-width="0.96" stroke-linecap="round" stroke-linejoin="round"/>
<path d="M40.3008 38.7664V194.05L8.79999 176.494V21.2112L40.3008 38.7664Z" fill="#1D1E5F" stroke="#0D052C" stroke-width="0.96" stroke-linecap="round" stroke-linejoin="round"/>
<path d="M183.917 18.4849L152.966 22.8561L40.3008 38.7665L8.79999 21.2113L153.062 0.840088L183.917 18.4849Z" fill="white" stroke="#0D052C" stroke-width="0.96" stroke-linecap="round" stroke-linejoin="round"/>
<path d="M74.6495 61.4544L77.0431 60.9232C77.3714 60.8143 77.7261 60.8143 78.0543 60.9232C78.6559 61.1984 78.6943 62.0304 78.5663 62.6832C78.3743 63.8736 78.1503 65.3008 79.0463 66.1072C80.6975 67.6048 83.7119 65.0064 85.4463 66.4144C86.2399 67.0544 86.3039 68.2384 86.0863 69.2368C85.8687 70.2352 85.5487 71.2464 85.7343 72.2448" stroke="#0D052C" stroke-width="0.96" stroke-linecap="round" stroke-linejoin="round"/>
<path d="M95.5583 81.0704C95.9607 80.3553 96.5404 79.7558 97.2415 79.3296C97.9767 78.9137 98.9067 79.1146 99.4047 79.7968C99.6607 80.264 99.5839 80.8592 99.8271 81.3328C100.043 81.6981 100.42 81.9387 100.842 81.9804C101.265 82.0221 101.682 81.86 101.965 81.544" stroke="#0D052C" stroke-width="0.96" stroke-linecap="round" stroke-linejoin="round"/>
<path d="M115.098 96.1422L112.851 95.1566C112.52 95.0529 112.233 94.8439 112.032 94.5614C111.712 93.9854 112.192 93.2814 112.672 92.8398C113.53 91.995 114.554 90.9774 114.31 89.7934C113.862 87.611 109.888 87.931 109.325 85.7742C109.069 84.7886 109.715 83.7966 110.451 83.0926C111.187 82.3886 112.07 81.8126 112.512 80.8782" stroke="#0D052C" stroke-width="0.96" stroke-linecap="round" stroke-linejoin="round"/>
<path d="M125.805 73.3201C126.624 73.3661 127.417 73.6217 128.109 74.0625C128.81 74.5341 129.043 75.4596 128.646 76.2065C128.339 76.6481 127.776 76.8465 127.456 77.2689C127.224 77.6248 127.176 78.0698 127.327 78.467C127.477 78.8641 127.808 79.1655 128.218 79.2785" stroke="#0D052C" stroke-width="0.96" stroke-linecap="round" stroke-linejoin="round"/>
<path d="M105.165 67.4001L106.214 65.1793C106.335 64.8504 106.56 64.5697 106.854 64.3793C107.443 64.0785 108.134 64.5777 108.557 65.0577C109.382 65.9409 110.368 66.9777 111.552 66.7793C113.754 66.3953 113.549 62.4145 115.718 61.9153C116.71 61.6849 117.683 62.3633 118.362 63.1185C119.04 63.8737 119.642 64.7761 120.518 65.2433" stroke="#0D052C" stroke-width="0.96" stroke-linecap="round" stroke-linejoin="round"/>
<path d="M140.646 60.8401L139.795 58.5361C139.644 58.2265 139.597 57.8763 139.661 57.5377C139.853 56.8977 140.678 56.7761 141.338 56.7889C142.541 56.7889 143.981 56.8529 144.666 55.8609C145.946 54.0177 142.944 51.3809 144.109 49.4609C144.634 48.5905 145.798 48.3665 146.816 48.4113C147.834 48.4561 148.877 48.6737 149.843 48.3601" stroke="#0D052C" stroke-width="0.96" stroke-linecap="round" stroke-linejoin="round"/>
<path d="M97.1136 42.5488L98.8416 40.808C99.0602 40.5376 99.3615 40.3465 99.6992 40.264C100.339 40.1744 100.813 40.8656 101.075 41.4736C101.555 42.5808 102.131 43.8992 103.322 44.104C105.517 44.4752 106.662 40.6608 108.877 40.904C109.888 41.0192 110.573 41.9792 110.963 42.92C111.354 43.8608 111.603 44.904 112.282 45.6464" stroke="#0D052C" stroke-width="0.96" stroke-linecap="round" stroke-linejoin="round"/>
<path d="M94.5855 57.5057C94.0732 56.8649 93.7299 56.1057 93.5871 55.2977C93.4804 54.4668 94.0104 53.6868 94.8223 53.4801C95.3535 53.4097 95.8719 53.6977 96.4031 53.6529C96.823 53.5841 97.1851 53.3197 97.3784 52.9406C97.5717 52.5616 97.5732 52.1132 97.3823 51.7329" stroke="#0D052C" stroke-width="0.96" stroke-linecap="round" stroke-linejoin="round"/>
<path d="M125.645 54.3439C126.002 53.6043 126.539 52.9662 127.206 52.4879C127.915 52.0246 128.858 52.1649 129.402 52.8143C129.683 53.2623 129.651 53.8575 129.92 54.3183C130.16 54.6693 130.554 54.8844 130.979 54.897C131.404 54.9097 131.81 54.7184 132.07 54.3823" stroke="#0D052C" stroke-width="0.96" stroke-linecap="round" stroke-linejoin="round"/>
<path d="M146.413 37.4031C147.011 36.8408 147.746 36.4438 148.544 36.2511C149.369 36.0738 150.196 36.545 150.464 37.3455C150.566 37.8703 150.317 38.4143 150.4 38.9391C150.499 39.3525 150.789 39.6942 151.18 39.8596C151.572 40.0251 152.018 39.9946 152.384 39.7775" stroke="#0D052C" stroke-width="0.96" stroke-linecap="round" stroke-linejoin="round"/>
<path d="M122.15 33.6912L124.582 33.352C124.919 33.2693 125.274 33.2985 125.594 33.4352C126.163 33.7552 126.112 34.5872 125.958 35.2272C125.67 36.3984 125.318 37.7872 126.157 38.6832C127.68 40.3088 130.899 37.96 132.506 39.5024C133.242 40.2064 133.21 41.4224 132.947 42.3696C132.685 43.3168 132.25 44.328 132.352 45.3392" stroke="#0D052C" stroke-width="0.96" stroke-linecap="round" stroke-linejoin="round"/>
<path d="M58.0607 45.16C58.1305 44.3361 58.4128 43.5445 58.8799 42.8624C59.3881 42.1874 60.3227 42.0026 61.0495 42.4336C61.4719 42.76 61.6383 43.3296 62.0479 43.6688C62.39 43.917 62.8292 43.989 63.2326 43.863C63.636 43.7369 63.9561 43.4276 64.0959 43.0288" stroke="#0D052C" stroke-width="0.96" stroke-linecap="round" stroke-linejoin="round"/>
<path d="M68.96 49.5119L69.5232 47.1247C69.5714 46.783 69.7259 46.465 69.9648 46.2159C70.4768 45.7999 71.2448 46.1455 71.776 46.5231C72.7616 47.2207 73.9456 48.0463 75.0592 47.5919C77.1328 46.7599 76.1088 42.9135 78.1312 41.9727C79.0528 41.5439 80.1472 41.9727 80.9664 42.6127C81.7856 43.2527 82.5344 43.9759 83.5264 44.2511" stroke="#0D052C" stroke-width="0.96" stroke-linecap="round" stroke-linejoin="round"/>
<path d="M153.421 29.9983L154.861 28.0143C155.033 27.7142 155.298 27.4784 155.616 27.3423C156.256 27.1567 156.813 27.7647 157.165 28.3215C157.805 29.3391 158.586 30.5551 159.789 30.5743C162.022 30.5743 162.56 26.6575 164.787 26.5679C165.805 26.5231 166.637 27.3679 167.162 28.2383C167.686 29.1087 168.09 30.1007 168.89 30.7279" stroke="#0D052C" stroke-width="0.96" stroke-linecap="round" stroke-linejoin="round"/>
<path d="M101.414 135.528C103.021 135.528 103.027 133.032 101.414 133.032C99.8016 133.032 99.808 135.528 101.414 135.528Z" stroke="#0D052C" stroke-width="0.96" stroke-linecap="round" stroke-linejoin="round"/>
<path d="M111.878 149.947C113.485 149.947 113.485 147.451 111.878 147.451C110.272 147.451 110.266 149.947 111.878 149.947Z" stroke="#0D052C" stroke-width="0.96" stroke-linecap="round" stroke-linejoin="round"/>
<path d="M112.371 118.37C113.978 118.37 113.978 115.874 112.371 115.874C110.765 115.874 110.758 118.37 112.371 118.37Z" stroke="#0D052C" stroke-width="0.96" stroke-linecap="round" stroke-linejoin="round"/>
<path d="M126.778 132.097C128.384 132.097 128.39 129.601 126.778 129.601C125.165 129.601 125.171 132.097 126.778 132.097Z" stroke="#0D052C" stroke-width="0.96" stroke-linecap="round" stroke-linejoin="round"/>
<path d="M85.6448 151.701C87.2512 151.701 87.2576 149.205 85.6448 149.205C84.032 149.205 84.0384 151.701 85.6448 151.701Z" stroke="#0D052C" stroke-width="0.96" stroke-linecap="round" stroke-linejoin="round"/>
<path d="M139.072 144.84C140.678 144.84 140.678 142.344 139.072 142.344C137.466 142.344 137.459 144.84 139.072 144.84Z" stroke="#0D052C" stroke-width="0.96" stroke-linecap="round" stroke-linejoin="round"/>
<path d="M132.563 160.527C134.17 160.527 134.176 158.031 132.563 158.031C130.95 158.031 130.957 160.527 132.563 160.527Z" stroke="#0D052C" stroke-width="0.96" stroke-linecap="round" stroke-linejoin="round"/>
<path d="M101.414 165.429C103.021 165.429 103.027 162.933 101.414 162.933C99.8016 162.933 99.808 165.429 101.414 165.429Z" stroke="#0D052C" stroke-width="0.96" stroke-linecap="round" stroke-linejoin="round"/>
<path d="M74.0928 167.88C75.6992 167.88 75.7056 165.384 74.0928 165.384C72.48 165.384 72.4864 167.88 74.0928 167.88Z" stroke="#0D052C" stroke-width="0.96" stroke-linecap="round" stroke-linejoin="round"/>
<path d="M151.834 156.117C153.44 156.117 153.44 153.621 151.834 153.621C150.227 153.621 150.227 156.117 151.834 156.117Z" stroke="#0D052C" stroke-width="0.96" stroke-linecap="round" stroke-linejoin="round"/>
<path d="M57.504 184.04C59.1104 184.04 59.1168 181.544 57.504 181.544C55.8912 181.544 55.8976 184.04 57.504 184.04Z" stroke="#0D052C" stroke-width="0.96" stroke-linecap="round" stroke-linejoin="round"/>
<path d="M85.6448 180.136C87.2512 180.136 87.2576 177.64 85.6448 177.64C84.032 177.64 84.0384 180.136 85.6448 180.136Z" stroke="#0D052C" stroke-width="0.96" stroke-linecap="round" stroke-linejoin="round"/>
<path d="M116.915 175.72C118.522 175.72 118.528 173.224 116.915 173.224C115.302 173.224 115.309 175.72 116.915 175.72Z" stroke="#0D052C" stroke-width="0.96" stroke-linecap="round" stroke-linejoin="round"/>
<path d="M144.179 172.366C145.786 172.366 145.792 169.87 144.179 169.87C142.566 169.87 142.573 172.366 144.179 172.366Z" stroke="#0D052C" stroke-width="0.96" stroke-linecap="round" stroke-linejoin="round"/>
<path d="M168.32 167.88C169.926 167.88 169.933 165.384 168.32 165.384C166.707 165.384 166.714 167.88 168.32 167.88Z" stroke="#0D052C" stroke-width="0.96" stroke-linecap="round" stroke-linejoin="round"/>
</svg>
