<svg width="124" height="118" viewBox="0 0 124 118" fill="none" xmlns="http://www.w3.org/2000/svg">
<path d="M77.4654 43.5451L61.1449 55.6326L44.8245 40.146L61.3781 26.5427C61.5977 26.3625 61.9203 26.3874 62.1095 26.5992L77.4654 43.5451Z" fill="#87D4FF" stroke="#0D052C" stroke-width="0.53" stroke-linecap="round" stroke-linejoin="round"/>
<g opacity="0.7">
<path d="M77.4654 43.5451L61.1449 55.6326L44.8245 40.146L61.3781 26.5427C61.5977 26.3625 61.9203 26.3874 62.1095 26.5992L77.4654 43.5451Z" fill="white" stroke="#0D052C" stroke-width="0.53" stroke-linecap="round" stroke-linejoin="round"/>
</g>
<path d="M61.1449 55.6326V116.978H51.8452L44.8245 40.146L61.1449 55.6326Z" fill="#87D4FF" stroke="#0D052C" stroke-width="0.53" stroke-linecap="round" stroke-linejoin="round"/>
<g opacity="0.4">
<path d="M61.1449 55.6326V116.978H51.8452L44.8245 40.146L61.1449 55.6326Z" fill="white" stroke="#0D052C" stroke-width="0.53" stroke-linecap="round" stroke-linejoin="round"/>
</g>
<path d="M77.4655 43.5449L71.3316 116.978H61.145V55.6325L77.4655 43.5449Z" fill="#87D4FF" stroke="#0D052C" stroke-width="0.53" stroke-linecap="round" stroke-linejoin="round"/>
<path d="M50.7534 61.4233L55.8308 67.9741" stroke="#0D052C" stroke-width="0.53" stroke-linecap="round" stroke-linejoin="round"/>
<path d="M54.0322 61.7871L56.8942 65.4794" stroke="#0D052C" stroke-width="0.53" stroke-linecap="round" stroke-linejoin="round"/>
<path d="M50.3223 64.7373L53.2903 68.5674" stroke="#0D052C" stroke-width="0.53" stroke-linecap="round" stroke-linejoin="round"/>
<path d="M55.0393 61.7871L50.4636 67.6878" stroke="#0D052C" stroke-width="0.53" stroke-linecap="round" stroke-linejoin="round"/>
<path d="M52.612 61.0488L50.7534 63.448" stroke="#0D052C" stroke-width="0.53" stroke-linecap="round" stroke-linejoin="round"/>
<path d="M56.4491 63.8364L53.5305 67.603" stroke="#0D052C" stroke-width="0.53" stroke-linecap="round" stroke-linejoin="round"/>
<path d="M24.5998 65.7351L18.1056 81.6139L0.792236 73.2258L6.41377 55.3931C6.4507 55.2774 6.53826 55.1848 6.65171 55.1415C6.76515 55.0982 6.89214 55.1089 6.99677 55.1705L24.5998 65.7351Z" fill="#53F2D4" stroke="#0D052C" stroke-width="0.53" stroke-linecap="round" stroke-linejoin="round"/>
<g opacity="0.78">
<path d="M24.5998 65.7351L18.1056 81.6139L0.792236 73.2258L6.41377 55.3931C6.4507 55.2774 6.53826 55.1848 6.65171 55.1415C6.76515 55.0982 6.89214 55.1089 6.99677 55.1705L24.5998 65.7351Z" fill="white" stroke="#0D052C" stroke-width="0.53" stroke-linecap="round" stroke-linejoin="round"/>
</g>
<path d="M32.7194 116.979H23.5186L0.785156 73.2256L18.1056 81.6137L32.7194 116.979Z" fill="#53F2D4" stroke="#0D052C" stroke-width="0.53" stroke-linecap="round" stroke-linejoin="round"/>
<g opacity="0.5">
<path d="M32.7194 116.979H23.5186L0.785156 73.2256L18.1056 81.6137L32.7194 116.979Z" fill="white" stroke="#0D052C" stroke-width="0.53" stroke-linecap="round" stroke-linejoin="round"/>
</g>
<path d="M39.9382 116.979H32.7196L18.1057 81.6142L24.6 65.7354L39.9382 116.979Z" fill="#53F2D4" stroke="#0D052C" stroke-width="0.53" stroke-linecap="round" stroke-linejoin="round"/>
<path d="M17.5508 95.104L28.7514 116.968" stroke="#0D052C" stroke-width="0.53" stroke-linecap="round" stroke-linejoin="round"/>
<path d="M14.1658 88.4932L16.7522 93.5458" stroke="#0D052C" stroke-width="0.53" stroke-linecap="round" stroke-linejoin="round"/>
<path d="M97.1319 17.561L78.7303 116.978H71.3315L78.3275 32.4682C78.3511 32.1677 78.5014 31.8914 78.7409 31.7085L97.1319 17.561Z" fill="#9E59FF" stroke="#0D052C" stroke-width="0.53" stroke-linecap="round" stroke-linejoin="round"/>
<g opacity="0.3">
<path d="M97.1319 17.561L78.7303 116.978H71.3315L78.3275 32.4682C78.3511 32.1677 78.5014 31.8914 78.7409 31.7085L97.1319 17.561Z" fill="white" stroke="#0D052C" stroke-width="0.53" stroke-linecap="round" stroke-linejoin="round"/>
</g>
<path d="M103.941 27.9066L109.393 36.1994C109.742 36.733 109.838 37.394 109.654 38.0049L85.7653 116.978H78.7305L97.1321 17.561L101.927 24.875" fill="#9E59FF"/>
<path d="M103.941 27.9066L109.393 36.1994C109.742 36.733 109.838 37.394 109.654 38.0049L85.7653 116.978H78.7305L97.1321 17.561L101.927 24.875" stroke="#0D052C" stroke-width="0.53" stroke-linecap="round" stroke-linejoin="round"/>
<path d="M84.504 45.7217L75.1477 116.968" stroke="#0D052C" stroke-width="0.53" stroke-linecap="round" stroke-linejoin="round"/>
<path d="M85.2812 39.8105L84.7971 43.5029" stroke="#0D052C" stroke-width="0.53" stroke-linecap="round" stroke-linejoin="round"/>
<path d="M123.127 70.788L108.955 76.035L101.927 63.4987L117.307 56.6052C117.452 56.5407 117.616 56.5391 117.761 56.6008C117.907 56.6624 118.02 56.7818 118.074 56.9302L123.127 70.788Z" fill="#FFE483" stroke="#0D052C" stroke-width="0.53" stroke-linecap="round" stroke-linejoin="round"/>
<g opacity="0.5">
<path d="M123.127 70.788L108.955 76.035L101.927 63.4987L117.308 56.6052C117.452 56.5407 117.616 56.5391 117.762 56.6008C117.907 56.6624 118.02 56.7818 118.074 56.9302L123.127 70.788Z" fill="white" stroke="#0D052C" stroke-width="0.53" stroke-linecap="round" stroke-linejoin="round"/>
</g>
<path d="M123.113 70.7881L100.56 116.979H92.5671L108.941 76.0351L123.113 70.7881Z" fill="#FFE483" stroke="#0D052C" stroke-width="0.53" stroke-linecap="round" stroke-linejoin="round"/>
<path d="M108.941 76.0353L92.567 116.98H85.7654L101.941 63.499L108.941 76.0353Z" fill="#FFE483" stroke="#0D052C" stroke-width="0.53" stroke-linecap="round" stroke-linejoin="round"/>
<g opacity="0.67">
<path d="M108.941 76.0353L92.567 116.98H85.7654L101.941 63.499L108.941 76.0353Z" fill="#FFE483" stroke="#0D052C" stroke-width="0.53" stroke-linecap="round" stroke-linejoin="round"/>
<g opacity="0.3">
<path d="M108.941 76.0353L92.567 116.98H85.7654L101.941 63.499L108.941 76.0353Z" fill="white" stroke="#0D052C" stroke-width="0.53" stroke-linecap="round" stroke-linejoin="round"/>
</g>
</g>
<path d="M105.026 98.3765L96.6904 115.365" stroke="#0D052C" stroke-width="0.53" stroke-linecap="round" stroke-linejoin="round"/>
<path d="M107.838 92.6348L105.845 96.7052" stroke="#0D052C" stroke-width="0.53" stroke-linecap="round" stroke-linejoin="round"/>
<path d="M111.622 64.3574L114.626 68.2335" stroke="#0D052C" stroke-width="0.53" stroke-linecap="round" stroke-linejoin="round"/>
<path d="M113.696 64.4917L114.438 65.4492" stroke="#0D052C" stroke-width="0.53" stroke-linecap="round" stroke-linejoin="round"/>
<path d="M111.011 66.1064L112.615 68.1805" stroke="#0D052C" stroke-width="0.53" stroke-linecap="round" stroke-linejoin="round"/>
<path d="M42.6444 16.2998L29.4721 29.6523L11.4309 21.9001L22.9319 1.16655C22.9892 1.06629 23.0875 0.996094 23.2009 0.974359C23.3144 0.952624 23.4316 0.981525 23.522 1.05348L42.6444 16.2998Z" fill="#FF81AF" stroke="#0D052C" stroke-width="0.53" stroke-linecap="round" stroke-linejoin="round"/>
<g opacity="0.6">
<path d="M42.6444 16.2998L29.4721 29.6523L11.4309 21.9001L22.9319 1.16655C22.9892 1.06629 23.0875 0.996094 23.2009 0.974359C23.3144 0.952624 23.4316 0.981525 23.522 1.05348L42.6444 16.2998Z" fill="white" stroke="#0D052C" stroke-width="0.53" stroke-linecap="round" stroke-linejoin="round"/>
</g>
<path d="M46.0717 116.979H39.9378L11.4309 21.8931L29.4721 29.6523L46.0717 116.979Z" fill="#FF81AF" stroke="#0D052C" stroke-width="0.53" stroke-linecap="round" stroke-linejoin="round"/>
<g opacity="0.3">
<path d="M46.0717 116.979H39.9378L11.4309 21.8931L29.4721 29.6523L46.0717 116.979Z" fill="white" stroke="#0D052C" stroke-width="0.53" stroke-linecap="round" stroke-linejoin="round"/>
</g>
<path d="M51.8452 116.979H46.0718L29.4722 29.6523L42.6444 16.2998L51.8452 116.979Z" fill="#FF81AF" stroke="#0D052C" stroke-width="0.53" stroke-linecap="round" stroke-linejoin="round"/>
<path d="M23.4055 14.3638L26.4089 18.2398" stroke="#0D052C" stroke-width="0.53" stroke-linecap="round" stroke-linejoin="round"/>
<path d="M25.4795 14.498L26.2215 15.4556" stroke="#0D052C" stroke-width="0.53" stroke-linecap="round" stroke-linejoin="round"/>
<path d="M22.7905 16.1123L24.3947 18.1828" stroke="#0D052C" stroke-width="0.53" stroke-linecap="round" stroke-linejoin="round"/>
<path d="M22.5679 33.9526L26.4086 50.7784" stroke="#0D052C" stroke-width="0.53" stroke-linecap="round" stroke-linejoin="round"/>
<path d="M20.7307 25.8931L21.9992 31.4545" stroke="#0D052C" stroke-width="0.53" stroke-linecap="round" stroke-linejoin="round"/>
</svg>
