<?xml version="1.0" standalone="no"?>
<!DOCTYPE svg PUBLIC "-//W3C//DTD SVG 20010904//EN"
        "http://www.w3.org/TR/2001/REC-SVG-20010904/DTD/svg10.dtd">
<svg version="1.0" xmlns="http://www.w3.org/2000/svg"
 width="700.000000pt" height="700.000000pt" viewBox="0 0 700.000000 700.000000"
 preserveAspectRatio="xMidYMid meet">
<metadata>
Created by potrace 1.14, written by Peter Selinger 2001-2017
</metadata>
<g transform="translate(0.000000,700.000000) scale(0.100000,-0.100000)"
fill="#000000" stroke="none">
<path d="M3350 6984 c-90 -19 -182 -58 -262 -110 -52 -33 -409 -385 -1491
-1466 -782 -783 -1439 -1448 -1459 -1478 -34 -49 -111 -210 -105 -217 2 -1 38
16 82 39 292 153 647 259 975 292 30 3 91 8 135 11 44 3 94 8 110 11 17 3 37
6 45 8 81 15 187 71 257 137 68 63 246 213 353 298 58 45 114 90 125 99 34 28
266 195 350 253 415 284 928 564 1395 760 275 115 606 232 860 305 l132 37
-424 424 c-414 416 -490 484 -595 537 -128 64 -341 91 -483 60z"/>
<path d="M5270 5624 c-30 -7 -66 -16 -80 -19 -263 -55 -791 -226 -1130 -368
-76 -31 -115 -48 -240 -104 -512 -230 -1064 -569 -1555 -956 -77 -61 -142
-113 -145 -116 -3 -3 -34 -31 -70 -61 -36 -30 -67 -57 -70 -60 -3 -3 -39 -35
-80 -71 -187 -161 -357 -225 -650 -244 -80 -5 -102 -7 -205 -21 -236 -31 -531
-127 -753 -246 -99 -53 -139 -91 -156 -148 -17 -56 -13 -97 13 -148 24 -46 28
-50 181 -161 69 -49 130 -94 135 -98 6 -5 43 -32 82 -61 91 -65 128 -101 193
-186 55 -74 103 -164 150 -281 113 -284 313 -585 546 -819 253 -255 517 -430
893 -591 180 -76 300 -166 397 -296 125 -168 184 -249 184 -254 0 -2 6 -13 14
-22 8 -10 33 -42 56 -70 64 -84 140 -112 228 -87 51 15 75 34 110 89 37 58
115 218 152 310 32 81 96 290 105 348 3 18 8 39 10 47 11 37 32 214 40 330 10
154 27 241 70 355 48 128 93 196 235 355 60 67 244 288 323 390 190 242 435
616 616 938 69 123 261 503 261 516 0 3 18 44 41 93 106 229 262 657 348 958
55 192 108 409 116 473 14 111 -53 230 -154 275 -55 24 -139 29 -211 11z
m-1144 -1165 c128 -31 240 -123 301 -246 30 -63 36 -86 39 -156 5 -113 -6
-151 -87 -311 -128 -251 -160 -299 -244 -364 -43 -33 -133 -80 -165 -88 -11
-2 -30 -7 -42 -10 -50 -13 -166 -15 -223 -5 -99 18 -198 72 -275 149 -150 150
-198 359 -128 556 15 44 35 87 43 96 8 9 15 21 15 26 0 16 93 108 140 140 25
17 74 45 110 64 36 18 103 53 150 78 145 77 254 98 366 71z"/>
<path d="M5932 4743 c-119 -427 -303 -900 -516 -1328 -108 -219 -241 -459
-360 -650 -49 -78 -268 -409 -275 -415 -3 -3 -22 -27 -41 -55 -19 -27 -38 -54
-42 -60 -33 -44 -228 -295 -243 -314 -47 -57 -212 -249 -238 -276 -53 -56
-106 -142 -126 -206 -25 -80 -29 -103 -36 -209 -7 -107 -19 -220 -31 -290 -2
-14 -7 -41 -10 -60 -3 -19 -17 -80 -30 -135 -13 -55 -26 -109 -29 -119 -26
-110 -119 -345 -192 -484 -29 -57 -53 -105 -53 -107 0 -5 97 33 140 55 21 11
60 34 86 52 48 32 2811 2788 2896 2888 49 58 106 162 132 243 57 172 39 402
-43 565 -52 102 -114 171 -539 595 l-419 419 -31 -109z"/>
</g>
</svg>
